<svg width="105" height="27" fill="none" xmlns="http://www.w3.org/2000/svg"><path d="M25.794 17.25v-8.4h1.608l3.576 5.928h-.852l3.516-5.928h1.608l.012 8.4h-1.824l-.012-5.604h.348l-2.82 4.716h-.864l-2.88-4.716h.408v5.604h-1.824zm10.607 0l3.744-8.4h1.92l3.756 8.4h-2.04l-3.072-7.416h.768l-3.084 7.416H36.4zm1.872-1.8l.516-1.476h4.32l.528 1.476h-5.364zm8.662 1.8v-8.4h3.636c.752 0 1.4.124 1.944.372.544.24.964.588 1.26 1.044.296.456.444 1 .444 1.632 0 .624-.148 1.164-.444 1.62-.296.456-.716.808-1.26 1.056-.544.24-1.192.36-1.944.36h-2.556l.864-.876v3.192h-1.944zm1.944-2.976l-.864-.924h2.448c.6 0 1.048-.128 1.344-.384.296-.256.444-.612.444-1.068 0-.464-.148-.824-.444-1.08-.296-.256-.744-.384-1.344-.384h-2.448l.864-.924v4.764zM55.5 17.25v-8.4h5.928l-.012 1.584h-4.44l.444-.444.012 7.26H55.5zm4.525 0l3.744-8.4h1.92l3.756 8.4h-2.04l-3.072-7.416h.768l-3.084 7.416h-1.992zm1.872-1.8l.516-1.476h4.32l.528 1.476h-5.364zm8.662 1.8v-8.4h3.636c.752 0 1.4.124 1.944.372.544.24.964.588 1.26 1.044.296.456.444 1 .444 1.632 0 .624-.148 1.164-.444 1.62-.296.456-.716.808-1.26 1.056-.544.24-1.192.36-1.944.36H71.64l.864-.876v3.192H70.56zm1.944-2.976l-.864-.924h2.448c.6 0 1.048-.128 1.344-.384.296-.256.444-.612.444-1.068 0-.464-.148-.824-.444-1.08-.296-.256-.744-.384-1.344-.384H71.64l.864-.924v4.764zm6.622 2.976v-8.4h1.932v5.472l4.008-5.472h1.824v8.4h-1.92v-5.46l-4.008 5.46h-1.836zm11.667 0V9.99l.444.444h-3.12V8.85H95.4v1.584h-3.12l.432-.444v7.26h-1.92zm4.46 0l3.743-8.4h1.92l3.756 8.4h-2.04L99.56 9.834h.768l-3.084 7.416h-1.992zm1.871-1.8l.516-1.476h4.32l.528 1.476h-5.364z" fill="#363222"/><path fill-rule="evenodd" clip-rule="evenodd" d="M17.608 22.985l-.026-12.19-7.486 12.518H7.483L0 11.06v11.67a13.079 13.079 0 008.945 3.52c3.32 0 6.351-1.233 8.663-3.265zm-.652-20.257L8.87 16.363.737 2.883A13.07 13.07 0 018.945 0c3.016 0 5.795 1.017 8.011 2.728z" fill="#7C3B16"/></svg>