<svg width="140" height="35" fill="none" xmlns="http://www.w3.org/2000/svg"><path d="M34.392 23V11.8h2.144l4.768 7.904h-1.136l4.688-7.904H47l.016 11.2h-2.432l-.016-7.472h.464l-3.76 6.288H40.12l-3.84-6.288h.544V23h-2.432zm14.142 0l4.992-11.2h2.56L61.094 23h-2.72l-4.096-9.888h1.024L51.19 23h-2.656zm2.496-2.4l.688-1.968h5.76l.704 1.968H51.03zM62.58 23V11.8h4.847c1.003 0 1.867.165 2.592.496.726.32 1.286.784 1.68 1.392.395.608.593 1.333.593 2.176 0 .832-.198 1.552-.593 2.16-.394.608-.954 1.077-1.68 1.408-.725.32-1.589.48-2.592.48H64.02l1.152-1.168V23H62.58zm2.591-3.968L64.02 17.8h3.264c.8 0 1.398-.17 1.793-.512.394-.341.592-.816.592-1.424 0-.619-.198-1.099-.593-1.44-.394-.341-.992-.512-1.791-.512H64.02l1.152-1.232v6.352zM74.001 23V11.8h7.904l-.016 2.112h-5.92l.592-.592.016 9.68h-2.576zm6.033 0l4.992-11.2h2.56L92.594 23h-2.72l-4.096-9.888h1.024L82.69 23h-2.656zm2.496-2.4l.688-1.968h5.76l.704 1.968H82.53zM94.08 23V11.8h4.847c1.003 0 1.867.165 2.593.496.725.32 1.285.784 1.68 1.392.394.608.592 1.333.592 2.176 0 .832-.198 1.552-.592 2.16-.395.608-.955 1.077-1.68 1.408-.726.32-1.59.48-2.593.48H95.52l1.152-1.168V23H94.08zm2.591-3.968L95.52 17.8h3.264c.8 0 1.398-.17 1.793-.512.394-.341.592-.816.592-1.424 0-.619-.198-1.099-.592-1.44-.395-.341-.992-.512-1.792-.512H95.52l1.152-1.232v6.352zm8.83 3.968V11.8h2.576v7.296l5.344-7.296h2.432V23h-2.56v-7.28L107.949 23h-2.448zm15.557 0v-9.68l.592.592h-4.16V11.8h9.712v2.112h-4.16l.576-.592V23h-2.56zm5.945 0l4.992-11.2h2.56l5.008 11.2h-2.72l-4.096-9.888h1.024L129.659 23h-2.656zm2.496-2.4l.688-1.968h5.76l.704 1.968h-7.152z" fill="#363222"/><path fill-rule="evenodd" clip-rule="evenodd" d="M23.476 30.648l-.034-15.922-9.98 16.69H9.975L0 15.083v15.225A17.439 17.439 0 0011.927 35c4.425 0 8.468-1.643 11.55-4.352zm-.732-26.906L11.825 22.151.848 3.953A17.428 17.428 0 0111.927 0c4.083 0 7.84 1.398 10.817 3.742z" fill="#7C3B16"/></svg>